<svg width="40" height="40" viewBox="0 0 40 40" fill="none" xmlns="http://www.w3.org/2000/svg">
<g clip-path="url(#clip0_7907_1618)">
<circle cx="20" cy="20" r="20" fill="#F7F7F7"/>
<path d="M20 10C14.4764 10 10 14.4764 10 20C10 25.5236 14.4764 30 20 30C25.5236 30 30 25.5236 30 20C30 14.4764 25.5236 10 20 10ZM20 13.6C20.4422 13.6 20.8 13.9578 20.8 14.4V19.5376L24.5625 21.7126C24.9453 21.9329 25.0703 22.4173 24.85 22.8001C24.6297 23.183 24.1453 23.3079 23.7625 23.0876L19.6873 20.7376C19.656 20.7251 19.6279 20.7048 19.5998 20.6876C19.3607 20.5486 19.1998 20.2954 19.1998 20.0001V14.4001C19.1998 13.9579 19.5578 13.6 20 13.6Z" fill="#5865F2"/>
</g>
<defs>
<clipPath id="clip0_7907_1618">
<rect width="40" height="40" fill="white"/>
</clipPath>
</defs>
</svg>
