<svg width="40" height="40" viewBox="0 0 40 40" fill="none" xmlns="http://www.w3.org/2000/svg">
<g clip-path="url(#clip0_7907_1638)">
<circle cx="20" cy="20" r="20" fill="#F7F7F7"/>
<path d="M22 16C22 15.4477 21.5523 15 21 15H17.76L18.3657 11.5874C18.4201 11.2811 18.1845 11 17.8734 11H16.889C16.6466 11 16.4391 11.1739 16.3967 11.4126L15.76 15H12.1801C11.9372 15 11.7294 15.1746 11.6876 15.4138L11.5126 16.4138C11.459 16.7198 11.6945 17 12.0051 17H15.41L14.35 23H10.7701C10.5272 23 10.3194 23.1746 10.2776 23.4138L10.1026 24.4138C10.049 24.7198 10.2845 25 10.5951 25H14L13.3942 28.4126C13.3399 28.7189 13.5754 29 13.8865 29H14.8709C15.1133 29 15.3208 28.8261 15.3632 28.5874L16 25H22L21.3942 28.4126C21.3399 28.7189 21.5754 29 21.8865 29H22.8709C23.1133 29 23.3208 28.8261 23.3632 28.5874L24 25H27.5799C27.8228 25 28.0305 24.8254 28.0724 24.5862L28.2474 23.5862C28.3009 23.2802 28.0655 23 27.7549 23H24.35L24.6758 21.1558C24.7823 20.5529 24.3185 20 23.7063 20C23.2286 20 22.8198 20.3429 22.7367 20.8133L22.3504 23H16.3504L17.4104 17H21C21.5523 17 22 16.5523 22 16Z" fill="#5865F2"/>
<path d="M29.025 13V12C29.025 10.88 28.05 10 27 10C25.95 10 25 10.88 25 12V13C24.4477 13 24 13.4477 24 14V17C24 17.5523 24.4477 18 25 18H27H29C29.5523 18 30 17.5523 30 17V13.975C30 13.4365 29.5635 13 29.025 13ZM28 13H26V12C26 11.4286 26.4667 11 27 11C27.5333 11 28 11.4286 28 12V13Z" fill="#5865F2"/>
</g>
<defs>
<clipPath id="clip0_7907_1638">
<rect width="40" height="40" fill="white"/>
</clipPath>
</defs>
</svg>
